<mxfile host="Electron" agent="Mozilla/5.0 (Windows NT 10.0; Win64; x64) AppleWebKit/537.36 (KHTML, like Gecko) draw.io/26.0.9 Chrome/128.0.6613.186 Electron/32.2.5 Safari/537.36" version="26.0.9">
  <diagram name="Страница — 1" id="3FkJaKN2cWZh5MDAvfWV">
    <mxGraphModel dx="1879" dy="695" grid="1" gridSize="10" guides="1" tooltips="1" connect="1" arrows="1" fold="1" page="1" pageScale="1" pageWidth="827" pageHeight="1169" math="0" shadow="0">
      <root>
        <mxCell id="0" />
        <mxCell id="1" parent="0" />
        <mxCell id="44CgEF0V4op-4HhoMwqW-1" value="&lt;font style=&quot;font-size: 14px;&quot;&gt;Управление доступом&lt;/font&gt;" style="shape=folder;fontStyle=1;spacingTop=10;tabWidth=40;tabHeight=14;tabPosition=left;html=1;whiteSpace=wrap;" parent="1" vertex="1">
          <mxGeometry x="90" y="420" width="180" height="80" as="geometry" />
        </mxCell>
        <mxCell id="44CgEF0V4op-4HhoMwqW-2" value="&lt;font style=&quot;font-size: 14px;&quot;&gt;Работа с книгами&lt;/font&gt;" style="shape=folder;fontStyle=1;spacingTop=10;tabWidth=40;tabHeight=14;tabPosition=left;html=1;whiteSpace=wrap;" parent="1" vertex="1">
          <mxGeometry x="90" y="545" width="180" height="80" as="geometry" />
        </mxCell>
        <mxCell id="44CgEF0V4op-4HhoMwqW-3" value="&lt;font style=&quot;font-size: 14px;&quot;&gt;Ведение журнала&lt;/font&gt;" style="shape=folder;fontStyle=1;spacingTop=10;tabWidth=40;tabHeight=14;tabPosition=left;html=1;whiteSpace=wrap;" parent="1" vertex="1">
          <mxGeometry x="90" y="680" width="180" height="80" as="geometry" />
        </mxCell>
        <mxCell id="44CgEF0V4op-4HhoMwqW-4" value="" style="shape=folder;fontStyle=1;spacingTop=10;tabWidth=40;tabHeight=14;tabPosition=left;html=1;whiteSpace=wrap;" parent="1" vertex="1">
          <mxGeometry x="420" y="420" width="360" height="430" as="geometry" />
        </mxCell>
        <mxCell id="44CgEF0V4op-4HhoMwqW-5" value="&lt;font style=&quot;font-size: 14px;&quot;&gt;БД Персонал&lt;/font&gt;" style="shape=folder;fontStyle=1;spacingTop=10;tabWidth=40;tabHeight=14;tabPosition=left;html=1;whiteSpace=wrap;" parent="1" vertex="1">
          <mxGeometry x="490" y="465" width="180" height="80" as="geometry" />
        </mxCell>
        <mxCell id="44CgEF0V4op-4HhoMwqW-6" value="&lt;font style=&quot;font-size: 14px;&quot;&gt;БД Книги&lt;/font&gt;" style="shape=folder;fontStyle=1;spacingTop=10;tabWidth=40;tabHeight=14;tabPosition=left;html=1;whiteSpace=wrap;" parent="1" vertex="1">
          <mxGeometry x="490" y="580" width="180" height="80" as="geometry" />
        </mxCell>
        <mxCell id="44CgEF0V4op-4HhoMwqW-7" value="&lt;font style=&quot;font-size: 14px;&quot;&gt;БД Журнал&lt;/font&gt;" style="shape=folder;fontStyle=1;spacingTop=10;tabWidth=40;tabHeight=14;tabPosition=left;html=1;whiteSpace=wrap;" parent="1" vertex="1">
          <mxGeometry x="490" y="710" width="180" height="80" as="geometry" />
        </mxCell>
        <mxCell id="44CgEF0V4op-4HhoMwqW-8" value="Use" style="endArrow=open;endSize=12;dashed=1;html=1;rounded=0;exitX=0;exitY=0;exitDx=180;exitDy=47;exitPerimeter=0;entryX=0;entryY=0;entryDx=0;entryDy=47;entryPerimeter=0;" parent="1" source="44CgEF0V4op-4HhoMwqW-3" target="44CgEF0V4op-4HhoMwqW-7" edge="1">
          <mxGeometry width="160" relative="1" as="geometry">
            <mxPoint x="140" y="920" as="sourcePoint" />
            <mxPoint x="300" y="920" as="targetPoint" />
          </mxGeometry>
        </mxCell>
        <mxCell id="44CgEF0V4op-4HhoMwqW-9" value="Use" style="endArrow=open;endSize=12;dashed=1;html=1;rounded=0;exitX=0;exitY=0;exitDx=180;exitDy=47;exitPerimeter=0;entryX=0.694;entryY=0.791;entryDx=0;entryDy=0;entryPerimeter=0;" parent="1" source="44CgEF0V4op-4HhoMwqW-6" target="44CgEF0V4op-4HhoMwqW-4" edge="1">
          <mxGeometry width="160" relative="1" as="geometry">
            <mxPoint x="609.9999999999999" y="716.3199999999999" as="sourcePoint" />
            <mxPoint x="920.9" y="650" as="targetPoint" />
            <Array as="points">
              <mxPoint x="720" y="690" />
            </Array>
          </mxGeometry>
        </mxCell>
        <mxCell id="44CgEF0V4op-4HhoMwqW-10" value="Use" style="endArrow=open;endSize=12;dashed=1;html=1;rounded=0;exitX=0;exitY=0;exitDx=180;exitDy=47;exitPerimeter=0;entryX=0;entryY=0;entryDx=180;entryDy=63.5;entryPerimeter=0;" parent="1" source="44CgEF0V4op-4HhoMwqW-5" target="44CgEF0V4op-4HhoMwqW-7" edge="1">
          <mxGeometry width="160" relative="1" as="geometry">
            <mxPoint x="740" y="560" as="sourcePoint" />
            <mxPoint x="900" y="560" as="targetPoint" />
            <Array as="points">
              <mxPoint x="760" y="600" />
            </Array>
          </mxGeometry>
        </mxCell>
        <mxCell id="44CgEF0V4op-4HhoMwqW-12" value="Use" style="endArrow=open;endSize=12;dashed=1;html=1;rounded=0;exitX=0;exitY=0;exitDx=180;exitDy=47;exitPerimeter=0;entryX=0;entryY=0;entryDx=0;entryDy=47;entryPerimeter=0;" parent="1" source="44CgEF0V4op-4HhoMwqW-1" target="44CgEF0V4op-4HhoMwqW-5" edge="1">
          <mxGeometry width="160" relative="1" as="geometry">
            <mxPoint x="280" y="520" as="sourcePoint" />
            <mxPoint x="440" y="520" as="targetPoint" />
          </mxGeometry>
        </mxCell>
        <mxCell id="44CgEF0V4op-4HhoMwqW-13" value="Use" style="endArrow=open;endSize=12;dashed=1;html=1;rounded=0;exitX=0;exitY=0;exitDx=180;exitDy=47;exitPerimeter=0;entryX=0;entryY=0;entryDx=0;entryDy=47;entryPerimeter=0;" parent="1" source="44CgEF0V4op-4HhoMwqW-2" target="44CgEF0V4op-4HhoMwqW-6" edge="1">
          <mxGeometry width="160" relative="1" as="geometry">
            <mxPoint x="320" y="560" as="sourcePoint" />
            <mxPoint x="480" y="560" as="targetPoint" />
          </mxGeometry>
        </mxCell>
        <mxCell id="44CgEF0V4op-4HhoMwqW-14" value="Use" style="endArrow=open;endSize=12;dashed=1;html=1;rounded=0;entryX=0;entryY=0;entryDx=0;entryDy=47;entryPerimeter=0;exitX=0;exitY=0;exitDx=180;exitDy=47;exitPerimeter=0;" parent="1" source="44CgEF0V4op-4HhoMwqW-3" target="44CgEF0V4op-4HhoMwqW-5" edge="1">
          <mxGeometry width="160" relative="1" as="geometry">
            <mxPoint x="280" y="720" as="sourcePoint" />
            <mxPoint x="490" y="660" as="targetPoint" />
          </mxGeometry>
        </mxCell>
        <mxCell id="44CgEF0V4op-4HhoMwqW-15" value="Use" style="endArrow=open;endSize=12;dashed=1;html=1;rounded=0;exitX=0;exitY=0;exitDx=180;exitDy=47;exitPerimeter=0;entryX=0.194;entryY=0.512;entryDx=0;entryDy=0;entryPerimeter=0;" parent="1" source="44CgEF0V4op-4HhoMwqW-3" target="44CgEF0V4op-4HhoMwqW-4" edge="1">
          <mxGeometry width="160" relative="1" as="geometry">
            <mxPoint x="310" y="770" as="sourcePoint" />
            <mxPoint x="470" y="770" as="targetPoint" />
          </mxGeometry>
        </mxCell>
        <mxCell id="eXIovTj7X-9lKeZEPAGA-1" value="&lt;span&gt;Пакеты системы&lt;/span&gt;" style="whiteSpace=wrap;html=1;shape=mxgraph.basic.document;fontSize=16;fontStyle=1" vertex="1" parent="1">
          <mxGeometry x="-70" y="260" width="240" height="100" as="geometry" />
        </mxCell>
      </root>
    </mxGraphModel>
  </diagram>
</mxfile>
